More AT:  http://directwrz.com/

Show: How I met your mother
Season: 6  Episode: 24
Released: 16th May 2011
Filesize: 174.73 MB

Show Summary: Barney and Robin reconnect when meddling in Ted's relationship while he's busy being a best man...

General:
Complete name : How I Met Your Mother S06E24 HDTV XviD [DwzRG].avi 
Format : AVI 
Format/Info : Audio Video Interleave 
File size : 175 MiB 
Duration : 21mn 22s 
Overall bit rate : 1 143 Kbps 
Writing application : VirtualDubMod 1.5.10.2 (build 2540/release) 
Writing library : VirtualDubMod build 2540/release 

Video:
ID : 0 
Format : MPEG-4 Visual 
Format profile : Advanced Simple@L5 
Format settings, BVOP : 2 
Format settings, QPel : No 
Format settings, GMC : No warppoints 
Format settings, Matrix : Default (H.263) 
Codec ID : XVID 
Codec ID/Hint : XviD 
Duration : 21mn 22s 
Bit rate : 999 Kbps 
Width : 624 pixels 
Height : 352 pixels 
Display aspect ratio : 16:9 
Frame rate : 23.976 fps 
Color space : YUV 
Chroma subsampling : 4:2:0 
Bit depth : 8 bits 
Scan type : Progressive 
Compression mode : Lossy 
Bits/(Pixel*Frame) : 0.190 
Stream size : 153 MiB (87%) 

Audio:
ID : 1 
Format : MPEG Audio 
Format version : Version 1 
Format profile : Layer 3 
Mode : Joint stereo 
Mode extension : MS Stereo 
Codec ID : 55 
Codec ID/Hint : MP3 
Duration : 21mn 22s 
Bit rate mode : Variable 
Bit rate : 128 Kbps 
Channel(s) : 2 channels 
Sampling rate : 48.0 KHz 
Compression mode : Lossy 
Stream size : 20.1 MiB (11%)

By DwzRG

More AT:  http://directwrz.com/